<?xml version="1.0" encoding="utf-8"?>
<!-- Generator: Adobe Illustrator 16.0.0, SVG Export Plug-In . SVG Version: 6.00 Build 0)  -->
<!DOCTYPE svg PUBLIC "-//W3C//DTD SVG 1.1//EN" "http://www.w3.org/Graphics/SVG/1.1/DTD/svg11.dtd">
<svg version="1.1" id="Layer_1" xmlns="http://www.w3.org/2000/svg" xmlns:xlink="http://www.w3.org/1999/xlink" x="0px" y="0px"
	 width="725.312px" height="270.398px" viewBox="0 0 725.312 270.398" enable-background="new 0 0 725.312 270.398"
	 xml:space="preserve">
<g>
	<polygon fill="#333333" points="116.023,102.279 98.775,102.279 98.775,133.668 91.667,133.668 91.667,101.095 96.999,95.616 
		142.157,95.616 147.487,101.095 147.487,133.668 140.379,133.668 140.379,102.279 123.13,102.279 123.13,133.668 116.023,133.668 	
		"/>
	<path fill="#333333" d="M156.074,101.095l5.33-5.479h23.246l5.33,5.479v27.096l-5.33,5.477h-23.246l-5.33-5.477V101.095z
		 M163.182,127.006h19.692v-24.727h-19.692V127.006z"/>
	<polygon fill="#333333" points="225.218,117.531 204.637,117.531 199.308,112.053 199.308,101.096 204.637,95.617 236.471,95.617 
		229.809,102.28 206.415,102.28 206.415,110.868 226.995,110.868 232.325,116.346 232.325,128.19 226.995,133.668 195.31,133.668 
		201.973,127.006 225.218,127.006 	"/>
	<path fill="#333333" d="M241.061,116.345l5.33-5.33h21.469v-8.736h-26.207l6.662-6.663h21.321l5.331,5.479v27.096l-5.331,5.477
		h-23.245l-5.33-5.477V116.345z M248.167,127.006h19.692v-9.328h-19.692V127.006z"/>
	<path fill="#333333" d="M285.33,84.069h7.107v7.847h-7.107V84.069z M285.33,95.616h7.107v38.052h-7.107V95.616z"/>
	<polygon fill="#333333" points="303.614,80.367 310.721,83.625 310.721,111.164 329.82,95.173 336.187,98.578 317.828,113.681 
		341.962,133.669 330.857,133.669 310.721,116.346 310.721,133.669 303.614,133.669 	"/>
	<polygon fill="#333333" points="344.775,80.367 351.882,83.625 351.882,111.164 370.981,95.173 377.348,98.578 358.989,113.681 
		383.123,133.669 372.018,133.669 351.882,116.346 351.882,133.669 344.775,133.669 	"/>
	<polygon fill="#333333" points="385.492,101.096 390.821,95.617 407.923,95.617 401.482,102.28 392.599,102.28 392.599,133.669 
		385.492,133.669 	"/>
	<path fill="#333333" d="M409.7,101.095l5.33-5.479h23.245l5.332,5.479v16.584h-26.801v9.327h26.651l-6.664,6.662H415.03
		l-5.33-5.477V101.095z M416.806,111.015h19.692v-8.736h-19.692V111.015z"/>
	<polygon fill="#333333" points="453.08,80.367 460.186,83.625 460.186,111.164 479.286,95.173 485.653,98.578 467.292,113.681 
		491.427,133.669 480.325,133.669 460.186,116.346 460.186,133.669 453.08,133.669 	"/>
	<polygon fill="#333333" points="495.128,80.367 502.236,83.625 502.236,133.669 495.128,133.669 	"/>
	<path fill="#333333" d="M512.528,116.345l5.327-5.33h21.469v-8.736h-26.208l6.665-6.663h21.318l5.332,5.479v27.096l-5.332,5.477
		h-23.244l-5.327-5.477V116.345z M519.631,127.006h19.693v-9.328h-19.693V127.006z"/>
	<polygon fill="#333333" points="579.375,102.279 562.125,102.279 562.125,133.668 555.018,133.668 555.018,101.095 560.35,95.616 
		605.505,95.616 610.837,101.095 610.837,133.668 603.73,133.668 603.73,102.279 586.484,102.279 586.484,133.668 579.375,133.668 	
		"/>
	<path fill="#333333" d="M619.427,101.095l5.328-5.479H648l5.333,5.479v16.584h-26.801v9.327h26.65l-6.665,6.662h-21.762
		l-5.328-5.477V101.095z M626.532,111.015h19.692v-8.736h-19.692V111.015z"/>
	<polygon fill="#B03665" points="40.846,154.762 31.296,168.024 24.401,180.756 18.036,190.305 0,226.371 0,236.978 11.671,243.881 
		34.478,243.881 46.68,226.901 63.121,210.99 63.653,201.973 49.33,154.235 	"/>
	<polygon fill="#8E2A52" points="49.33,235.39 62.589,220.537 70.547,212.579 80.624,205.684 91.764,198.791 97.601,199.32 
		107.149,209.398 142.156,243.347 141.625,251.832 102.372,258.727 83.811,264.566 64.715,251.299 56.757,249.182 	"/>
	<polygon fill="#B03665" points="22.279,72.67 44.027,60.999 70.547,27.584 80.097,12.731 90.707,12.2 99.191,63.121 98.66,69.486 
		74.792,85.399 65.244,94.948 47.212,103.434 44.027,107.675 33.946,106.618 22.279,85.399 	"/>
	<polygon fill="#8E2A52" points="177.695,191.363 186.185,169.085 200.508,171.738 226.495,177.571 246.647,176.508 
		255.669,178.105 237.635,210.461 220.654,236.453 208.996,235.922 177.695,203.034 	"/>
	<polygon fill="#B03665" points="110.862,143.095 98.66,184.467 98.66,191.895 137.911,217.886 158.599,226.37 171.864,222.655 
		176.109,216.823 167.62,201.441 166.557,176.508 150.117,165.371 119.876,144.151 	"/>
	<polygon fill="#8E2A52" points="198.914,12.731 202.095,46.68 167.62,59.94 133.671,68.422 112.454,65.242 103.435,14.321 
		112.454,11.136 151.173,24.931 175.578,19.627 188.305,12.2 	"/>
	<polygon fill="#B03665" points="270.522,1.058 240.815,31.827 232.327,41.373 221.193,46.68 219.601,59.941 230.738,79.563 
		241.349,80.626 255.668,63.12 259.914,60.999 268.395,51.984 269.989,47.206 280.599,47.206 308.71,24.93 308.71,16.443 
		304.999,13.792 290.675,1.59 277.419,0 	"/>
	<polygon fill="#8E2A52" points="278.479,146.278 274.768,155.825 272.111,177.042 294.389,190.832 312.956,206.748 
		329.935,214.173 343.195,173.86 331.529,168.556 290.144,146.278 	"/>
	<polygon fill="#8E2A52" points="350.621,179.163 337.894,220.537 338.422,227.963 354.865,255.013 364.411,269.868 370.78,270.398 
		373.963,266.152 375.018,192.955 356.991,180.756 	"/>
	<polyline fill="#B03665" points="231.8,234.328 258.32,192.425 268.395,184.467 282.191,193.489 297.04,207.811 296.515,216.823 
		292.804,226.9 280.599,232.206 259.381,247.592 251.956,255.013 243.465,255.013 231.8,243.88 231.8,235.922 	"/>
	<polyline fill="#B03665" points="671.408,122.574 691.082,107.488 697.182,105.492 702.1,112.106 706.598,121.39 704.794,125.529 
		701.318,129.617 694.67,130 682.062,133.559 677.294,135.759 673.309,134.295 669.757,127.057 671.132,123.322 	"/>
	<polygon fill="#8E2A52" points="681.135,83.556 673.929,87.413 666.071,88.141 662.184,95.755 664.542,110 670.675,112.982 
		683.144,105.632 686.164,105.296 693.249,101.755 695.257,99.238 701.634,101.581 723.439,94.412 725.312,89.316 725.312,89.312 
		723.666,86.901 717.761,76.41 710.15,72.526 705.773,71.639 	"/>
</g>
</svg>
